<svg xmlns="http://www.w3.org/2000/svg" width="640" height="640" viewBox="0 0 640 640" role="img" aria-labelledby="title desc">
  <title id="title">Sdkwork Chat Community QR Placeholder</title>
  <desc id="desc">Placeholder image for the Sdkwork Chat community QR code.</desc>
  <rect width="640" height="640" rx="36" fill="#faf7f4"/>
  <rect x="24" y="24" width="592" height="592" rx="28" fill="#ffffff" stroke="#e2d2c7" stroke-width="4"/>
  <text x="320" y="94" text-anchor="middle" font-family="Arial, sans-serif" font-size="34" font-weight="700" fill="#7c2d12">Sdkwork Chat QR</text>
  <text x="320" y="130" text-anchor="middle" font-family="Arial, sans-serif" font-size="18" fill="#4b5563">Placeholder asset. Replace with the real community QR code.</text>
  <rect x="110" y="180" width="420" height="420" rx="18" fill="#f8fafc" stroke="#d1d5db" stroke-width="3"/>
  <rect x="150" y="220" width="92" height="92" fill="#111827"/>
  <rect x="398" y="220" width="92" height="92" fill="#111827"/>
  <rect x="150" y="468" width="92" height="92" fill="#111827"/>
  <rect x="178" y="248" width="36" height="36" fill="#ffffff"/>
  <rect x="426" y="248" width="36" height="36" fill="#ffffff"/>
  <rect x="178" y="496" width="36" height="36" fill="#ffffff"/>
  <g fill="#111827">
    <rect x="274" y="236" width="28" height="28"/>
    <rect x="316" y="236" width="28" height="28"/>
    <rect x="358" y="236" width="28" height="28"/>
    <rect x="274" y="278" width="28" height="28"/>
    <rect x="330" y="278" width="28" height="28"/>
    <rect x="372" y="278" width="28" height="28"/>
    <rect x="260" y="334" width="28" height="28"/>
    <rect x="302" y="334" width="28" height="28"/>
    <rect x="344" y="334" width="28" height="28"/>
    <rect x="386" y="334" width="28" height="28"/>
    <rect x="246" y="376" width="28" height="28"/>
    <rect x="302" y="376" width="28" height="28"/>
    <rect x="372" y="376" width="28" height="28"/>
    <rect x="274" y="432" width="28" height="28"/>
    <rect x="330" y="432" width="28" height="28"/>
    <rect x="386" y="432" width="28" height="28"/>
  </g>
  <text x="320" y="575" text-anchor="middle" font-family="Arial, sans-serif" font-size="18" fill="#64748b">Suggested replacement path: docs/public/community/sdkwork-chat-qr-placeholder.svg</text>
</svg>
